{"title":"Men.in.Black.3.2012.V2.HD.TS.XviD.AC3-ADTRG","uid":7318904,"size":1520878079,"categoryP":"video","categoryS":"movies","magnet":"?xt=urn:btih:9cad8800bb0204bbd22203877bd6b66963f810ca&amp;dn=Men.in.Black.3.2012.V2.HD.TS.XviD.AC3-ADTRG&amp;tr=udp%3A%2F%2Ftracker.openbittorrent.com%3A80&amp;tr=udp%3A%2F%2Fopen.demonii.com%3A1337&amp;tr=udp%3A%2F%2Ftracker.coppersurfer.tk%3A6969&amp;tr=udp%3A%2F%2Fexodus.desync.com%3A6969","seeders":3,"leechers":0,"uploader":"maximersk","files":4,"time":1338566609,"description":"Men.in.Black.3.2012.V2.HD.TS.XviD.AC3-ADTRG\n\n\n\n\n\nMen.in.Black.3.2012.V2.HD.TS.XViD.AC3-ADTRG\n\nAgent J travels in time to MIB's early years in the 1960s, to stop an alien from assassinating his friend Agent K and changing history.\n &lt;a href=&quot;\nhttp://www.imdb.com/title/tt1409024/&quot; rel=&quot;nofollow&quot; target=&quot;_NEW&quot;&gt;\nhttp://www.imdb.com/title/tt1409024/&lt;/a&gt;\n\nSource - full Cam - Russans Thanks, Amazing work on this (except end credits)\nSource - full LiNe Audio - Dragon Exclusive Thanks, Awesome work bro (except end credits)\n\nComplete name : Men.in.Black.3.2012.V2.HD.TS.XViD.AC3-ADTRG.avi\nFormat : AVI\nFormat/Info : Audio Video Interleave\nFile size : 1.40 GiB\nDuration : 1h 37mn\nOverall bit rate : 2 056 Kbps\n\nVideo\nID : 0\nFormat : MPEG-4 Visual\nCodec ID : XVID\nBit rate : 1 854 Kbps\nWidth : 720 pixels\nHeight : 352 pixels\nDisplay aspect ratio : 2.045\nFrame rate : 23.976 fps\nStream size : 1.27 GiB (90%)\n\nAudio\nID : 1\nFormat : AC-3\nBit rate : 192 Kbps\nChannel(s) : 2 channels\nSampling rate : 48.0 KHz\nStream size : 134 MiB (9%)\n\n\nAwesome Cam , Awesome LiNe, Awesome Sync ..... awesome awesome awesome\n\n\nthis is the full movie now enjoy","torrent":{"xt":"urn:btih:9cad8800bb0204bbd22203877bd6b66963f810ca","amp;dn":"Men.in.Black.3.2012.V2.HD.TS.XviD.AC3-ADTRG","amp;tr":["udp%3A%2F%2Ftracker.openbittorrent.com%3A80","udp%3A%2F%2Fopen.demonii.com%3A1337","udp%3A%2F%2Ftracker.coppersurfer.tk%3A6969","udp%3A%2F%2Fexodus.desync.com%3A6969"],"infoHash":"9cad8800bb0204bbd22203877bd6b66963f810ca","infoHashBuffer":{"type":"Buffer","data":[156,173,136,0,187,2,4,187,210,34,3,135,123,214,182,105,99,248,16,202]},"announce":[],"urlList":[]}}